<svg xmlns="http://www.w3.org/2000/svg" width="256" height="256" viewBox="0 0 256 256" role="img" aria-label="FoldSpace icon B"><g transform="translate(0 -3.5)"><path d="M20 66 Q20 48 38 48 H98 Q106 48 112 54 L124 66 H218 Q236 66 236 84 V196 Q236 214 218 214 H38 Q20 214 20 196 Z" fill="#D99A2B"></path><path d="M236 120 V196 Q236 214 218 214 H142 Z" fill="#1B2559"></path><circle cx="226" cy="156" r="3" fill="#FFFFFF"></circle><circle cx="170" cy="207" r="2.5" fill="#FFFFFF"></circle><g transform="rotate(-20 206 190)"><ellipse cx="206" cy="190" rx="20" ry="6" fill="none" stroke="#A8EEF5" stroke-width="2.5"></ellipse><circle cx="206" cy="190" r="11" fill="#3FD0E0"></circle><path d="M186 190 A20 6 0 0 0 226 190" fill="none" stroke="#A8EEF5" stroke-width="2.5"></path></g><path d="M20 98 Q20 86 32 86 H224 Q236 86 236 98 V120 L142 214 H38 Q20 214 20 196 Z" fill="#F6C453"></path><path d="M236 120 L142 214 L142 120 Z" fill="#FBE3A0"></path><path d="M236 120 L142 214" stroke="#C98A1E" stroke-width="2"></path></g></svg>